<svg width="40" height="40" viewBox="0 0 40 40" fill="none" xmlns="http://www.w3.org/2000/svg">
<path d="M19.8322 28.3237C20.2811 28.3237 20.6449 27.9599 20.6449 27.511C20.6449 27.0622 20.2811 26.6983 19.8322 26.6983C19.3834 26.6983 19.0195 27.0622 19.0195 27.511C19.0195 27.9599 19.3834 28.3237 19.8322 28.3237Z" fill="white"/>
<path d="M33.24 28.3237C33.9133 28.3237 34.4591 27.9599 34.4591 27.511C34.4591 27.0622 33.9133 26.6983 33.24 26.6983C32.5668 26.6983 32.021 27.0622 32.021 27.511C32.021 27.9599 32.5668 28.3237 33.24 28.3237Z" fill="white"/>
<path d="M26.3347 28.3237C26.7835 28.3237 27.1474 27.9599 27.1474 27.511C27.1474 27.0622 26.7835 26.6983 26.3347 26.6983C25.8858 26.6983 25.522 27.0622 25.522 27.511C25.522 27.9599 25.8858 28.3237 26.3347 28.3237Z" fill="white"/>
<path d="M6.82754 28.3237C7.72522 28.3237 8.45294 27.9599 8.45294 27.511C8.45294 27.0622 7.72522 26.6983 6.82754 26.6983C5.92986 26.6983 5.20215 27.0622 5.20215 27.511C5.20215 27.9599 5.92986 28.3237 6.82754 28.3237Z" fill="white"/>
<path d="M13.7356 28.3237C14.4089 28.3237 14.9547 27.9599 14.9547 27.511C14.9547 27.0622 14.4089 26.6983 13.7356 26.6983C13.0624 26.6983 12.5166 27.0622 12.5166 27.511C12.5166 27.9599 13.0624 28.3237 13.7356 28.3237Z" fill="white"/>
<path d="M34.824 24.3082H5.17601C4.32907 24.3216 3.52137 24.6675 2.9272 25.2712C2.33302 25.8749 2 26.688 2 27.535C2 28.3821 2.33302 29.1951 2.9272 29.7988C3.52137 30.4025 4.32907 30.7484 5.17601 30.7618H34.824C35.6709 30.7484 36.4786 30.4025 37.0728 29.7988C37.667 29.1951 38 28.3821 38 27.535C38 26.688 37.667 25.8749 37.0728 25.2712C36.4786 24.6675 35.6709 24.3216 34.824 24.3082ZM7.11104 30.1165C6.6004 30.1172 6.10105 29.9663 5.67616 29.6831C5.25127 29.3999 4.91993 28.997 4.72407 28.5254C4.52822 28.0538 4.47664 27.5348 4.57586 27.0339C4.67509 26.533 4.92066 26.0727 5.28151 25.7114C5.64235 25.3501 6.10226 25.104 6.60304 25.0041C7.10382 24.9043 7.62296 24.9552 8.09479 25.1505C8.56662 25.3457 8.96993 25.6765 9.25369 26.1011C9.53745 26.5256 9.68891 27.0248 9.68891 27.5354C9.68912 27.8742 9.62259 28.2098 9.4931 28.5229C9.36362 28.836 9.17372 29.1205 8.93426 29.3602C8.69479 29.5999 8.41045 29.79 8.09748 29.9198C7.78451 30.0496 7.44904 30.1164 7.11023 30.1165H7.11104ZM13.5565 30.1165C13.0459 30.1172 12.5465 29.9663 12.1217 29.6831C11.6968 29.3999 11.3654 28.997 11.1696 28.5254C10.9737 28.0538 10.9221 27.5348 11.0214 27.0339C11.1206 26.533 11.3662 26.0727 11.727 25.7114C12.0879 25.3501 12.5478 25.104 13.0485 25.0041C13.5493 24.9043 14.0685 24.9552 14.5403 25.1505C15.0121 25.3457 15.4154 25.6765 15.6992 26.1011C15.9829 26.5256 16.1344 27.0248 16.1344 27.5354C16.1346 27.8743 16.0681 28.2099 15.9385 28.523C15.809 28.8362 15.619 29.1207 15.3795 29.3604C15.1399 29.6001 14.8555 29.7903 14.5424 29.92C14.2294 30.0498 13.8938 30.1165 13.5549 30.1165H13.5565ZM20.002 30.1165C19.4914 30.1172 18.992 29.9663 18.5672 29.6831C18.1423 29.3999 17.8109 28.997 17.6151 28.5254C17.4192 28.0538 17.3676 27.5348 17.4669 27.0339C17.5661 26.533 17.8117 26.0727 18.1725 25.7114C18.5333 25.3501 18.9933 25.104 19.494 25.0041C19.9948 24.9043 20.514 24.9552 20.9858 25.1505C21.4576 25.3457 21.8609 25.6765 22.1447 26.1011C22.4284 26.5256 22.5799 27.0248 22.5799 27.5354C22.5801 27.8743 22.5136 28.2099 22.384 28.523C22.2545 28.8362 22.0645 29.1207 21.825 29.3604C21.5854 29.6001 21.301 29.7903 20.9879 29.92C20.6748 30.0498 20.3393 30.1165 20.0004 30.1165H20.002ZM26.4475 30.1165C25.9369 30.1172 25.4375 29.9663 25.0126 29.6831C24.5878 29.3999 24.2564 28.997 24.0606 28.5254C23.8647 28.0538 23.8131 27.5348 23.9124 27.0339C24.0116 26.533 24.2572 26.0727 24.618 25.7114C24.9788 25.3501 25.4387 25.104 25.9395 25.0041C26.4403 24.9043 26.9594 24.9552 27.4313 25.1505C27.9031 25.3457 28.3064 25.6765 28.5902 26.1011C28.8739 26.5256 29.0254 27.0248 29.0254 27.5354C29.0256 27.8743 28.9591 28.2099 28.8295 28.523C28.7 28.8362 28.51 29.1207 28.2705 29.3604C28.0309 29.6001 27.7465 29.7903 27.4334 29.92C27.1203 30.0498 26.7848 30.1165 26.4459 30.1165H26.4475ZM32.893 30.1165C32.3824 30.1172 31.883 29.9663 31.4581 29.6831C31.0333 29.3999 30.7019 28.997 30.5061 28.5254C30.3102 28.0538 30.2586 27.5348 30.3578 27.0339C30.4571 26.533 30.7026 26.0727 31.0635 25.7114C31.4243 25.3501 31.8842 25.104 32.385 25.0041C32.8858 24.9043 33.4049 24.9552 33.8768 25.1505C34.3486 25.3457 34.7519 25.6765 35.0357 26.1011C35.3194 26.5256 35.4709 27.0248 35.4709 27.5354C35.4711 27.8744 35.4045 28.21 35.2749 28.5232C35.1453 28.8364 34.9553 29.121 34.7157 29.3607C34.476 29.6004 34.1915 29.7906 33.8783 29.9203C33.5652 30.05 33.2295 30.1166 32.8906 30.1165H32.893Z" fill="white"/>
<path d="M12.5539 14.0902C12.6598 14.0194 12.7842 13.9817 12.9115 13.9817C13.0388 13.9817 13.1632 14.0194 13.2691 14.0902L14.2004 14.7119V8.819H11.6226V14.7119L12.5539 14.0902Z" fill="white"/>
<path d="M6.46527 8.819C6.29427 8.81922 6.13035 8.8873 6.00951 9.00829C5.88867 9.12928 5.8208 9.29328 5.8208 9.46428V22.3715C5.8208 22.5425 5.88867 22.7065 6.00951 22.8275C6.13035 22.9485 6.29427 23.0166 6.46527 23.0168H19.3554C19.5264 23.0166 19.6904 22.9485 19.8112 22.8275C19.932 22.7065 19.9999 22.5425 19.9999 22.3715V9.46428C19.9999 9.29328 19.932 9.12928 19.8112 9.00829C19.6904 8.8873 19.5264 8.81922 19.3554 8.819H15.4919V15.9179C15.4921 16.0347 15.4605 16.1493 15.4007 16.2495C15.3408 16.3497 15.2548 16.4318 15.1519 16.4869C15.049 16.5421 14.9331 16.5683 14.8165 16.5627C14.6999 16.5571 14.587 16.5199 14.4898 16.4551L12.914 15.3986L11.3382 16.4502C11.2412 16.5149 11.1284 16.5521 11.012 16.5578C10.8955 16.5634 10.7797 16.5374 10.6768 16.4824C10.574 16.4275 10.488 16.3456 10.428 16.2456C10.368 16.1457 10.3363 16.0313 10.3361 15.9147V8.819H6.46527Z" fill="white"/>
<path d="M36.3271 15.9179L32.8902 13.3368V13.9821C32.8902 14.1531 32.8223 14.3171 32.7015 14.4381C32.5806 14.5591 32.4167 14.6271 32.2457 14.6274H25.1558V17.2085H32.2457C32.4167 17.2087 32.5806 17.2768 32.7015 17.3978C32.8223 17.5188 32.8902 17.6828 32.8902 17.8538V18.499L36.3271 15.9179Z" fill="white"/>
</svg>
