<svg width="40" height="40" viewBox="0 0 40 40" fill="none" xmlns="http://www.w3.org/2000/svg">
<path d="M34.6616 13.7282H13.0258C12.6536 13.7843 12.314 13.9721 12.0685 14.2573C11.823 14.5426 11.688 14.9065 11.688 15.2828C11.688 15.6592 11.823 16.0231 12.0685 16.3084C12.314 16.5936 12.6536 16.7814 13.0258 16.8375H23.0353V30.1361C23.0351 30.4329 22.9171 30.7174 22.7073 30.9272C22.4975 31.137 22.213 31.255 21.9163 31.2552C21.2997 31.2552 20.4081 32.8712 21.9163 32.8712C22.2745 32.8718 22.6294 32.8018 22.9606 32.6652C23.2918 32.5286 23.5928 32.328 23.8464 32.0749C24.3579 32.5852 25.051 32.8717 25.7735 32.8712C27.2817 32.8712 26.3908 31.2552 25.7735 31.2552C25.4768 31.255 25.1922 31.137 24.9824 30.9272C24.7726 30.7174 24.6546 30.4329 24.6544 30.1361V16.8367H34.664C35.0361 16.7806 35.3758 16.5929 35.6213 16.3076C35.8667 16.0223 36.0018 15.6584 36.0018 15.2821C36.0018 14.9057 35.8667 14.5418 35.6213 14.2566C35.3758 13.9713 35.0361 13.7835 34.664 13.7274L34.6616 13.7282Z" fill="white"/>
<path d="M15.8729 21.2457C15.8729 20.8264 15.7064 20.4243 15.4099 20.1278C15.1134 19.8313 14.7113 19.6648 14.2921 19.6648H7.08091L8 13L5.61101 6.71705C5.58687 6.50409 5.47912 6.30945 5.31147 6.17595C5.14381 6.04244 4.92999 5.981 4.71704 6.00515C4.50409 6.02929 4.30945 6.13704 4.17595 6.3047C4.04244 6.47235 3.981 6.68617 4.00515 6.89912L5.45863 19.7C5.10141 19.7772 4.78199 19.9758 4.55472 20.262C4.32745 20.5483 4.20637 20.9044 4.21208 21.2698C4.21779 21.6352 4.34994 21.9874 4.58605 22.2664C4.82215 22.5454 5.14762 22.7339 5.50708 22.7999L4.46229 32.121C4.44959 32.2269 4.45797 32.3342 4.48694 32.4368C4.51591 32.5394 4.56489 32.6353 4.63108 32.7188C4.69726 32.8024 4.77934 32.8721 4.87257 32.9238C4.9658 32.9755 5.06834 33.0083 5.17429 33.0202C5.28024 33.0321 5.3875 33.0229 5.48989 32.9932C5.59228 32.9635 5.68777 32.9138 5.77086 32.847C5.85395 32.7802 5.923 32.6976 5.97402 32.604C6.02505 32.5103 6.05704 32.4076 6.06816 32.3015L7.13092 22.8265H12.9542L14.017 32.3015C14.0281 32.4076 14.0601 32.5103 14.1111 32.604C14.1622 32.6976 14.2312 32.7802 14.3143 32.847C14.3974 32.9138 14.4929 32.9635 14.5953 32.9932C14.6977 33.0229 14.8049 33.0321 14.9109 33.0202C15.0168 33.0083 15.1194 32.9755 15.2126 32.9238C15.3058 32.8721 15.3879 32.8024 15.4541 32.7188C15.5203 32.6353 15.5693 32.5394 15.5982 32.4368C15.6272 32.3342 15.6356 32.2269 15.6229 32.121L14.5765 22.7999C14.9403 22.7334 15.2692 22.5414 15.5061 22.2575C15.7429 21.9735 15.8728 21.6154 15.8729 21.2457Z" fill="white"/>
</svg>
