<svg width="18" height="32" viewBox="0 0 18 32" fill="none" xmlns="http://www.w3.org/2000/svg">
<path d="M11.9648 32C9.93977 32 7.46626 31.9699 5.47938 31.9457C4.02096 31.9281 2.76366 31.9127 2.00766 31.9127C1.79779 31.9124 1.59005 31.8707 1.39629 31.7901C1.20253 31.7095 1.02656 31.5915 0.878436 31.4428C0.730313 31.2941 0.612942 31.1177 0.533032 30.9237C0.453122 30.7296 0.41224 30.5217 0.412723 30.3118C0.412723 26.5596 0.410242 21.7105 0.410245 18.613C0.410678 18.0696 0.409708 16.9079 0.40911 15.8902C0.408785 15.3378 0.855655 14.8902 1.40799 14.8902C2.51376 14.8902 4.13766 14.8902 4.13766 14.8902V11.6996C4.13959 10.9387 4.32242 10.1891 4.67107 9.51271C5.01972 8.83634 5.5242 8.25256 6.14289 7.80953C6.23327 7.74497 6.34156 7.71027 6.45263 7.71027C6.5637 7.71027 6.67199 7.74497 6.76237 7.80953C7.20643 8.12475 7.71562 8.33621 8.25235 8.42828L6.95321 9.72742C6.86889 9.81115 6.81517 9.92079 6.80066 10.0387C6.78615 10.1567 6.8117 10.2761 6.8732 10.3777L8.46814 13.0369C8.51548 13.1155 8.58232 13.1805 8.66218 13.2256C8.74204 13.2707 8.83221 13.2945 8.92394 13.2945C9.01567 13.2945 9.10584 13.2707 9.1857 13.2256C9.26556 13.1805 9.3324 13.1155 9.37974 13.0369L10.9754 10.3777C11.0361 10.2755 11.0608 10.1558 11.0453 10.0378C11.0299 9.91992 10.9753 9.8106 10.8903 9.72742L9.59113 8.42828C10.1278 8.33606 10.637 8.12462 11.0811 7.80953C11.1715 7.74497 11.2798 7.71027 11.3908 7.71027C11.5019 7.71027 11.6102 7.74497 11.7006 7.80953C12.3192 8.25259 12.8236 8.8364 13.1721 9.51278C13.5206 10.1892 13.7033 10.9387 13.7051 11.6996V14.891H16.7853C17.3375 14.891 17.7853 15.3388 17.7853 15.8911C17.7853 15.9288 17.7853 15.9653 17.7853 16V30.3118C17.7853 31.3857 17.1298 31.9075 15.7808 31.9075C15.2134 31.9677 13.9634 32 11.9648 32ZM2.68585 20.158C2.49119 20.158 2.3045 20.2353 2.16685 20.373C2.02921 20.5106 1.95188 20.6973 1.95188 20.892V29.5463C1.95188 29.741 2.02921 29.9277 2.16685 30.0653C2.3045 30.203 2.49119 30.2803 2.68585 30.2803H15.3888C15.5835 30.2803 15.7702 30.203 15.9078 30.0653C16.0455 29.9277 16.1228 29.741 16.1228 29.5463V20.892C16.1228 20.6973 16.0455 20.5106 15.9078 20.373C15.7702 20.2353 15.5835 20.158 15.3888 20.158H2.68585ZM2.79918 16.5C2.36203 16.5 2.00766 16.8544 2.00766 17.2915C2.00766 17.7287 2.36203 18.083 2.79918 18.083H15.3313C15.7684 18.083 16.1228 17.7287 16.1228 17.2915C16.1228 16.8544 15.7684 16.5 15.3313 16.5H2.79918ZM8.92174 11.7297L7.99619 10.1884L8.92247 9.26281L9.84802 10.1862L8.92247 11.7275L8.92174 11.7297ZM8.92174 7.44548C8.18545 7.44548 7.46569 7.22715 6.85349 6.81809C6.24129 6.40903 5.76414 5.82761 5.48237 5.14737C5.20061 4.46713 5.12688 3.71861 5.27053 2.99647C5.41417 2.27433 5.76873 1.611 6.28936 1.09037C6.81 0.569732 7.47333 0.215176 8.19547 0.0715331C8.91761 -0.0721097 9.66613 0.00161302 10.3464 0.283378C11.0266 0.565144 11.608 1.0423 12.0171 1.6545C12.4261 2.2667 12.6445 2.98645 12.6445 3.72274C12.6431 4.70959 12.2504 5.65562 11.5526 6.35335C10.8547 7.05109 9.90858 7.44432 8.92174 7.44548Z" fill="white"/>
</svg>
