<svg width="25" height="32" viewBox="0 0 25 32" fill="none" xmlns="http://www.w3.org/2000/svg">
<path d="M19.0148 6.04462C17.2382 3.91684 15.2625 1.96357 13.1146 0.211382C12.9668 0.0962747 12.7898 0.0249216 12.6035 0.0054341C12.4173 -0.0140534 12.2293 0.0191066 12.0609 0.101145C11.8926 0.183182 11.7506 0.310807 11.6512 0.469511C11.5517 0.628215 11.4988 0.811631 11.4985 0.99891V5.39639C11.4985 6.23659 11.1806 8.17059 10.3627 8.67775C9.62517 9.1742 8.07601 7.73575 7.36706 6.49285C7.28659 6.35199 7.17308 6.23279 7.03631 6.14553C6.89955 6.05827 6.74362 6.00557 6.58197 5.99195C6.42031 5.97833 6.25776 6.00421 6.10833 6.06736C5.95889 6.13051 5.82705 6.22904 5.72414 6.35445C2.69814 10.0474 -0.00195312 14.7047 -0.00195312 19.4996C-0.00195312 22.8149 1.31505 25.9944 3.65934 28.3387C6.00363 30.683 9.18317 32 12.4985 32C15.8138 32 18.9933 30.683 21.3376 28.3387C23.6819 25.9944 24.9989 22.8149 24.9989 19.4996C24.9989 14.5806 22.1586 9.80368 19.0166 6.04462H19.0148ZM6.9974 15.9994C6.9974 15.6039 7.1147 15.2172 7.33447 14.8883C7.55425 14.5593 7.86661 14.303 8.23208 14.1516C8.59754 14.0002 8.99969 13.9606 9.38766 14.0378C9.77564 14.115 10.132 14.3055 10.4117 14.5852C10.6915 14.8649 10.8819 15.2213 10.9591 15.6092C11.0363 15.9972 10.9967 16.3994 10.8453 16.7648C10.6939 17.1303 10.4376 17.4427 10.1087 17.6624C9.77974 17.8822 9.39305 17.9995 8.99747 17.9995C8.46723 17.9988 7.95892 17.7878 7.58399 17.4129C7.20906 17.038 6.99811 16.5297 6.9974 15.9994ZM9.78678 24.6131C9.70623 24.7171 9.60599 24.8041 9.49179 24.8693C9.37759 24.9346 9.25166 24.9766 9.1212 24.9932C8.99074 25.0097 8.85829 25.0004 8.73143 24.9658C8.60457 24.9311 8.48577 24.8718 8.38182 24.7913C8.27788 24.7107 8.19082 24.6105 8.12561 24.4963C8.0604 24.3821 8.01832 24.2561 8.00178 24.1257C7.98524 23.9952 7.99456 23.8628 8.0292 23.7359C8.06385 23.609 8.12314 23.4902 8.20369 23.3863L15.2039 14.386C15.2838 14.2801 15.3838 14.1911 15.4983 14.1243C15.6128 14.0574 15.7395 14.014 15.871 13.9966C16.0024 13.9791 16.136 13.988 16.264 14.0226C16.392 14.0573 16.5118 14.1171 16.6165 14.1985C16.7212 14.2799 16.8086 14.3813 16.8737 14.4968C16.9388 14.6123 16.9803 14.7396 16.9958 14.8713C17.0112 15.003 17.0003 15.1365 16.9637 15.2639C16.9271 15.3914 16.8655 15.5103 16.7826 15.6137L9.78678 24.6131ZM15.9977 24.9989C15.6021 24.9989 15.2154 24.8816 14.8865 24.6618C14.5576 24.442 14.3013 24.1296 14.1499 23.7642C13.9985 23.3987 13.9589 22.9966 14.0361 22.6086C14.1133 22.2206 14.3037 21.8642 14.5835 21.5845C14.8632 21.3048 15.2195 21.1143 15.6075 21.0372C15.9955 20.96 16.3976 20.9996 16.7631 21.151C17.1286 21.3023 17.4409 21.5587 17.6607 21.8876C17.8805 22.2165 17.9978 22.6032 17.9978 22.9988C17.9971 23.529 17.7861 24.0373 17.4112 24.4123C17.0363 24.7872 16.528 24.9981 15.9977 24.9989Z" fill="white"/>
</svg>
