<svg width="40" height="40" viewBox="0 0 40 40" fill="none" xmlns="http://www.w3.org/2000/svg">
<path d="M24.4265 35.9722L34 33.8907C34 33.8907 30.545 10.4065 30.5174 10.2509C30.5084 10.1825 30.4758 10.1195 30.4253 10.0728C30.3748 10.0261 30.3096 9.99868 30.241 9.99537C30.112 9.99537 27.6816 9.81018 27.6816 9.81018C27.6816 9.81018 25.9872 8.11482 25.7698 7.93241C25.723 7.88965 25.6686 7.85605 25.6095 7.83333L24.3961 35.9722H24.4265ZM19.6144 19.0731C18.8795 18.7163 18.0765 18.5233 17.2604 18.5074C15.3404 18.5074 15.2648 19.7111 15.2648 20.0287C15.2648 21.6713 19.5638 22.3157 19.5638 26.2009C19.6222 27.1797 19.384 28.1534 18.8805 28.9933C18.377 29.8332 17.6319 30.5 16.7436 30.9056C15.6693 31.0907 15.8527 31.2861 14.7102 32.1602C14.4135 32.1602 14.1519 31.2852 13.6046 31.2148C12.9528 31.1495 12.3233 30.9406 11.761 30.6029C11.1987 30.2652 10.7174 29.8071 10.3514 29.2611L11.2083 26.4833C11.2083 26.4833 12.8602 27.9046 14.233 27.9046C14.3992 27.9097 14.5648 27.8814 14.7201 27.8214C14.8754 27.7614 15.0172 27.6709 15.1373 27.5553C15.2573 27.4396 15.3533 27.301 15.4195 27.1476C15.4857 26.9943 15.5208 26.8292 15.5228 26.662C15.5228 24.5037 12.0015 24.4037 12.0015 20.85C11.9628 18.3148 13.4959 15.8352 16.8845 15.0926C17.1554 15.0269 17.7248 13.8565 18.3725 13.8565C18.6397 13.8565 18.9133 14.9741 19.4237 15.0278C19.935 15.0654 20.4333 15.2069 20.8886 15.4435L19.6347 19.0639L19.608 19.0769L19.6144 19.0731ZM18.8986 5.11111C19.0923 5.11071 19.2808 5.17377 19.4357 5.29074C18.1302 5.91111 16.6975 7.47593 16.1079 10.6139C15.2372 10.8981 14.3924 11.1537 13.6019 11.3843C14.2901 9.00463 15.954 5.12407 18.8986 5.12407V5.11111ZM20.5367 9.03889V9.21852C19.5361 9.52778 18.4361 9.86667 17.3609 10.2C17.9791 7.83056 19.1298 6.67315 20.1248 6.23889C20.4299 7.13941 20.5695 8.08818 20.5367 9.03889ZM21.2516 6.06018C22.1729 6.15926 22.7654 7.21574 23.1477 8.4C22.687 8.55185 22.1729 8.70833 21.6109 8.88796V8.55185C21.6305 7.70605 21.509 6.86292 21.2516 6.05741V6.06018ZM25.2216 7.7787C25.1949 7.7787 25.1424 7.80648 25.1184 7.80648C25.0945 7.80648 24.7352 7.90648 24.1713 8.08426C23.6093 6.44259 22.6097 4.92593 20.8435 4.92593H20.6905C20.5004 4.65506 20.2516 4.43102 19.963 4.27065C19.6743 4.11027 19.3532 4.01774 19.0239 4C14.9037 4 12.9357 9.16944 12.3175 11.7944C10.7338 12.2815 9.58027 12.6426 9.45221 12.6935C8.55668 12.9778 8.53088 13.0028 8.42769 13.8537C8.32819 14.4694 6 32.6046 6 32.6046L23.9916 36L25.2216 7.7787Z" fill="white"/>
</svg>
