<svg width="32" height="32" viewBox="0 0 32 32" fill="none" xmlns="http://www.w3.org/2000/svg">
<path d="M16.3312 2.66806H14.8672C14.6485 1.8996 14.1852 1.2234 13.5476 0.741935C12.91 0.260472 12.1328 0 11.3338 0C10.5348 0 9.75766 0.260472 9.12004 0.741935C8.48243 1.2234 8.01916 1.8996 7.80046 2.66806H6.33008C6.06562 2.6702 5.81262 2.77626 5.62571 2.96335C5.43879 3.15044 5.33295 3.40353 5.33105 3.66799V5.66603C5.33344 6.28426 5.57997 6.87651 6.01695 7.31384C6.45394 7.75117 7.046 7.99815 7.66423 8.00102H14.9971C15.615 7.99816 16.2068 7.75142 16.6437 7.31449C17.0806 6.87755 17.3274 6.28576 17.3302 5.66785V3.66981C17.3288 3.40504 17.2232 3.15147 17.0362 2.964C16.8492 2.77652 16.596 2.6702 16.3312 2.66806Z" fill="white"/>
<path d="M18.9996 4.00132H18.6663V5.66787C18.6665 6.14942 18.5718 6.62629 18.3877 7.07123C18.2035 7.51616 17.9335 7.92044 17.5929 8.26095C17.2524 8.60145 16.8482 8.87151 16.4032 9.05568C15.9583 9.23985 15.4814 9.33452 14.9999 9.33428H7.66614C7.18428 9.335 6.70702 9.24068 6.26166 9.05672C5.81631 8.87277 5.4116 8.60279 5.07071 8.26223C4.72982 7.92168 4.45944 7.51724 4.27504 7.07207C4.09064 6.62689 3.99585 6.14972 3.99609 5.66787V4.00132H3.66641C3.18487 4.00108 2.70799 4.09575 2.26306 4.27992C1.81812 4.46409 1.41384 4.73415 1.07334 5.07465C0.73283 5.41516 0.462773 5.81944 0.278603 6.26437C0.0944334 6.70931 -0.000238294 7.18618 4.50427e-07 7.66773V24.3342C-0.000238294 24.8157 0.0944334 25.2926 0.278603 25.7375C0.462773 26.1824 0.73283 26.5867 1.07334 26.9272C1.41384 27.2677 1.81812 27.5378 2.26306 27.722C2.70799 27.9061 3.18487 28.0008 3.66641 28.0006H13.0127C12.342 26.5365 11.9962 24.9446 11.9992 23.3342H4.99965C4.7347 23.3342 4.48059 23.229 4.29324 23.0416C4.10589 22.8543 4.00063 22.6002 4.00063 22.3352C4.00063 22.0702 4.10589 21.8161 4.29324 21.6288C4.48059 21.4414 4.7347 21.3362 4.99965 21.3362H12.1863C12.3216 20.5347 12.5499 19.7517 12.8665 19.003H4.99965C4.86846 19.003 4.73855 18.9772 4.61734 18.927C4.49614 18.8768 4.38601 18.8032 4.29324 18.7104C4.20047 18.6176 4.12688 18.5075 4.07668 18.3863C4.02647 18.2651 4.00063 18.1352 4.00063 18.004C4.00063 17.8728 4.02647 17.7429 4.07668 17.6217C4.12688 17.5005 4.20047 17.3903 4.29324 17.2976C4.38601 17.2048 4.49614 17.1312 4.61734 17.081C4.73855 17.0308 4.86846 17.005 4.99965 17.005H13.9327C14.5204 16.1365 15.2231 15.3516 16.0216 14.6718H4.99965C4.7347 14.6718 4.48059 14.5665 4.29324 14.3792C4.10589 14.1918 4.00063 13.9377 4.00063 13.6728C4.00063 13.4078 4.10589 13.1537 4.29324 12.9663C4.48059 12.779 4.7347 12.6737 4.99965 12.6737H17.6664C17.8269 12.674 17.985 12.7129 18.1272 12.7872C18.2695 12.8615 18.3918 12.969 18.4837 13.1006C19.7968 12.4744 21.2184 12.1077 22.6705 12.0207V7.66773C22.6708 7.1858 22.576 6.70856 22.3915 6.26332C22.2071 5.81809 21.9366 5.41361 21.5956 5.07304C21.2546 4.73248 20.8498 4.46252 20.4043 4.27861C19.9589 4.09471 19.4815 4.00048 18.9996 4.00132Z" fill="white"/>
<path d="M23.3325 14.6682C21.6183 14.6682 19.9427 15.1765 18.5174 16.1288C17.0921 17.0811 15.9812 18.4347 15.3253 20.0184C14.6693 21.6021 14.4976 23.3447 14.8321 25.026C15.1665 26.7072 15.9919 28.2515 17.204 29.4636C18.4161 30.6757 19.9604 31.5012 21.6417 31.8356C23.3229 32.17 25.0655 31.9984 26.6492 31.3424C28.2329 30.6864 29.5865 29.5755 30.5388 28.1502C31.4912 26.725 31.9995 25.0493 31.9995 23.3351C31.9968 21.0373 31.0829 18.8344 29.4581 17.2096C27.8333 15.5848 25.6303 14.6708 23.3325 14.6682ZM24.0391 28.7081C23.8996 28.8485 23.7212 28.9439 23.5269 28.982C23.3326 29.02 23.1314 28.999 22.9492 28.9215C22.8296 28.8722 22.7209 28.7997 22.6294 28.7082C22.5379 28.6167 22.4654 28.508 22.4161 28.3884C22.3629 28.2664 22.3356 28.1346 22.3362 28.0015C22.3363 27.8702 22.3622 27.7402 22.4126 27.619C22.4629 27.4977 22.5366 27.3876 22.6296 27.2949C22.8209 27.1151 23.0736 27.015 23.3361 27.015C23.5987 27.015 23.8514 27.1151 24.0427 27.2949C24.1375 27.3836 24.2105 27.493 24.2561 27.6146C24.3094 27.7366 24.3366 27.8683 24.3361 28.0015C24.336 28.1327 24.31 28.2627 24.2597 28.384C24.2094 28.5052 24.1356 28.6153 24.0427 28.7081H24.0391ZM25.3033 23.6911C25.0228 23.8751 24.789 24.1219 24.6204 24.412C24.4519 24.702 24.3533 25.0274 24.3324 25.3622V25.6692C24.3324 25.9342 24.2272 26.1883 24.0398 26.3756C23.8525 26.563 23.5984 26.6682 23.3334 26.6682C23.0685 26.6682 22.8144 26.563 22.627 26.3756C22.4396 26.1883 22.3344 25.9342 22.3344 25.6692V25.3622C22.3506 24.7127 22.5209 24.0762 22.8314 23.5054C23.1418 22.9346 23.5835 22.4457 24.1199 22.0791C24.3041 21.9445 24.4506 21.7649 24.5456 21.5575C24.6405 21.3501 24.6807 21.1218 24.6623 20.8945C24.6439 20.6671 24.5675 20.4483 24.4405 20.2588C24.3134 20.0694 24.1399 19.9157 23.9365 19.8125C23.7331 19.7092 23.5066 19.6598 23.2787 19.669C23.0508 19.6782 22.8291 19.7457 22.6346 19.865C22.4402 19.9843 22.2797 20.1515 22.1683 20.3505C22.0569 20.5496 21.9984 20.7739 21.9984 21.002C21.9984 21.1331 21.9725 21.2631 21.9223 21.3843C21.8721 21.5055 21.7985 21.6156 21.7058 21.7084C21.613 21.8011 21.5029 21.8747 21.3816 21.9249C21.2604 21.9751 21.1305 22.001 20.9993 22.001C20.8681 22.001 20.7382 21.9751 20.617 21.9249C20.4958 21.8747 20.3857 21.8011 20.2929 21.7084C20.2002 21.6156 20.1266 21.5055 20.0764 21.3843C20.0262 21.2631 20.0003 21.1331 20.0003 21.002C20.0005 20.4323 20.1467 19.8722 20.4249 19.3752C20.7031 18.8781 21.1041 18.4606 21.5895 18.1626C22.075 17.8646 22.6287 17.6959 23.1979 17.6728C23.767 17.6496 24.3326 17.7727 24.8407 18.0303C25.3488 18.2879 25.7823 18.6714 26.1 19.1442C26.4177 19.617 26.6089 20.1634 26.6554 20.7311C26.7019 21.2988 26.6021 21.869 26.3656 22.3872C26.129 22.9054 25.7636 23.3543 25.3042 23.6911H25.3033Z" fill="white"/>
</svg>
