<svg width="33" height="30" viewBox="0 0 33 30" fill="none" xmlns="http://www.w3.org/2000/svg">
<path d="M4.44667 11.9267C4.50187 11.9915 4.57077 12.0431 4.64838 12.078C4.72598 12.1129 4.81037 12.1301 4.89543 12.1283C5.16199 12.1165 5.30792 11.9116 5.45807 11.7243L5.85959 11.2241L6.90051 9.92503L7.47243 9.2114C7.55036 9.09781 7.5823 8.95888 7.56181 8.82266C7.54132 8.68644 7.46992 8.56306 7.36202 8.47743C7.25412 8.39179 7.11775 8.35027 6.98043 8.36125C6.84311 8.37223 6.71507 8.43488 6.62215 8.53657L5.41083 10.0397V9.9554C5.41508 7.79256 6.27706 5.71973 7.80768 4.19163C9.3383 2.66354 11.4126 1.80499 13.5754 1.80432C13.6467 1.80432 13.7174 1.79027 13.7833 1.76297C13.8492 1.73567 13.9091 1.69566 13.9595 1.64521C14.01 1.59477 14.05 1.53488 14.0773 1.46897C14.1046 1.40306 14.1186 1.33242 14.1186 1.26108C14.1186 1.18974 14.1046 1.1191 14.0773 1.0532C14.05 0.987287 14.01 0.927403 13.9595 0.876959C13.9091 0.826514 13.8492 0.786499 13.7833 0.759199C13.7174 0.731899 13.6467 0.71785 13.5754 0.71785C11.1242 0.718515 8.77331 1.69145 7.03853 3.42323C5.30376 5.155 4.32674 7.50418 4.32183 9.9554V10.0397L3.11389 8.53235C3.0206 8.43205 2.89292 8.37062 2.75633 8.36033C2.61973 8.35005 2.48429 8.39166 2.37703 8.47687C2.26978 8.56207 2.19861 8.6846 2.17774 8.81998C2.15687 8.95536 2.18783 9.09363 2.26445 9.20718L2.77057 9.84152L3.75666 11.0722C3.97682 11.3472 4.18939 11.629 4.41715 11.8964L4.44667 11.9267Z" fill="white"/>
<path d="M28.1535 15.5986C28.0997 15.5347 28.0323 15.4835 27.9564 15.4486C27.8804 15.4138 27.7976 15.3962 27.7141 15.397C27.3766 15.4089 27.1851 15.7479 26.9962 15.9875L26.3408 16.8057C25.9539 17.2894 25.5664 17.7727 25.1784 18.2558L25.1311 18.3148C25.0545 18.4284 25.0236 18.5666 25.0444 18.702C25.0653 18.8374 25.1365 18.9599 25.2437 19.0451C25.351 19.1303 25.4864 19.172 25.623 19.1617C25.7596 19.1514 25.8873 19.09 25.9806 18.9897L27.1885 17.4823V17.5666C27.1843 19.7294 26.3223 21.8023 24.7917 23.3304C23.2611 24.8585 21.1868 25.717 19.024 25.7177C18.8799 25.7177 18.7417 25.7749 18.6398 25.8768C18.538 25.9787 18.4807 26.1169 18.4807 26.2609C18.4807 26.405 18.538 26.5432 18.6398 26.6451C18.7417 26.7469 18.8799 26.8041 19.024 26.8041C21.4752 26.8035 23.826 25.8306 25.5608 24.0988C27.2956 22.367 28.2726 20.0178 28.2775 17.5666V17.4823L29.4855 18.9897C29.5784 19.0914 29.7065 19.154 29.8438 19.165C29.9811 19.1759 30.1174 19.1344 30.2253 19.0488C30.3333 18.9632 30.4046 18.8398 30.4251 18.7036C30.4456 18.5673 30.4137 18.4284 30.3358 18.3148L29.4475 17.2064L28.2497 15.7125C28.2177 15.672 28.1864 15.6349 28.1535 15.5986Z" fill="white"/>
<path d="M32.09 3.26447H31.546V3.03418C31.552 2.63433 31.4777 2.23733 31.3273 1.86677C31.177 1.4962 30.9537 1.15962 30.6708 0.877007C30.3879 0.594391 30.051 0.371501 29.6803 0.22157C29.3096 0.0716386 28.9125 -0.00227775 28.5126 0.00420881C27.9937 -0.0206316 27.4754 0.0646954 26.9918 0.254575C26.5083 0.444454 26.0704 0.734581 25.707 1.10586C25.6573 1.10165 25.6092 1.09068 25.5577 1.09068H23.3806C23.3291 1.09068 23.281 1.1008 23.2313 1.10586C22.8679 0.734581 22.43 0.444454 21.9464 0.254575C21.4629 0.0646954 20.9446 -0.0206316 20.4257 0.00420881C20.0255 -0.00262047 19.628 0.0710644 19.2569 0.220885C18.8858 0.370705 18.5485 0.593603 18.2653 0.876332C17.982 1.15906 17.7584 1.49585 17.6079 1.86669C17.4573 2.23753 17.3829 2.63484 17.3889 3.03503V3.26447H16.8449C16.7007 3.26447 16.5624 3.32168 16.4604 3.42353C16.3584 3.52538 16.301 3.66355 16.3008 3.80771V5.98149C16.301 6.12565 16.3584 6.26382 16.4604 6.36567C16.5624 6.46752 16.7007 6.52473 16.8449 6.52473H17.3889V13.5851C17.3892 13.7293 17.4466 13.8674 17.5486 13.9693C17.6506 14.0711 17.7889 14.1284 17.933 14.1283H22.2933V6.52473H23.3822V14.1326H25.5594V6.52473H26.6484V14.1326H31.0027C31.1469 14.1326 31.2852 14.0754 31.3872 13.9735C31.4892 13.8717 31.5466 13.7335 31.5468 13.5893V6.52473H32.0909C32.2351 6.52473 32.3733 6.46752 32.4753 6.36567C32.5774 6.26382 32.6347 6.12565 32.635 5.98149V3.80771C32.6349 3.73626 32.6207 3.66553 32.5932 3.59956C32.5658 3.53359 32.5256 3.47367 32.475 3.42323C32.4244 3.37279 32.3644 3.3328 32.2983 3.30556C32.2323 3.27832 32.1615 3.26436 32.09 3.26447ZM23.3814 3.25941C23.2773 3.25663 23.176 3.22505 23.0887 3.16817C23.0014 3.11129 22.9316 3.03133 22.8871 2.93718C22.8497 2.84882 22.836 2.75221 22.8474 2.65693C22.8588 2.56164 22.8949 2.47099 22.9521 2.39394C23.1292 2.16113 23.4101 2.17884 23.6724 2.17884H25.389C25.5132 2.15974 25.6403 2.17706 25.7548 2.22871C25.8694 2.28037 25.9664 2.36413 26.0343 2.46986C26.0789 2.55656 26.0997 2.65349 26.0946 2.75082C26.0896 2.84816 26.0589 2.94242 26.0057 3.02406C25.7762 3.36148 25.2625 3.26616 24.909 3.267C24.4324 3.267 23.9559 3.267 23.475 3.267C23.4434 3.26573 23.4119 3.26292 23.3806 3.25856L23.3814 3.25941ZM31.546 5.43826H17.3931V4.35094H31.546V5.43826Z" fill="white"/>
<path d="M9.22766 21.4566H8.68359V23.6304H9.22766C9.51593 23.6304 9.79239 23.5159 9.99622 23.3121C10.2001 23.1082 10.3146 22.8318 10.3146 22.5435C10.3146 22.2552 10.2001 21.9788 9.99622 21.7749C9.79239 21.5711 9.51593 21.4566 9.22766 21.4566Z" fill="white"/>
<path d="M5.96094 19.2828C5.96161 19.5712 6.07664 19.8475 6.2808 20.0512C6.48495 20.2549 6.76156 20.3693 7.04994 20.3693H7.59149V18.1955H7.04741C6.75932 18.1962 6.48323 18.311 6.2796 18.5148C6.07597 18.7185 5.96138 18.9947 5.96094 19.2828Z" fill="white"/>
<path d="M8.13758 12.7623C6.52603 12.7649 4.95143 13.2453 3.61277 14.1425C2.27411 15.0398 1.23147 16.3138 0.6166 17.8034C0.00173391 19.2931 -0.15776 20.9315 0.158273 22.5118C0.474307 24.0921 1.25168 25.5432 2.39217 26.6818C3.53265 27.8204 4.98505 28.5953 6.56584 28.9088C8.14662 29.2222 9.78484 29.06 11.2735 28.4426C12.7621 27.8253 14.0343 26.7806 14.9294 25.4404C15.8244 24.1003 16.3021 22.5249 16.3022 20.9133C16.2979 18.7505 15.4359 16.6777 13.9053 15.1496C12.3747 13.6215 10.3004 12.7629 8.13758 12.7623ZM9.22658 24.7168H8.6825V25.2601C8.6825 25.4045 8.62514 25.543 8.52302 25.6451C8.42091 25.7472 8.28241 25.8046 8.138 25.8046C7.99359 25.8046 7.8551 25.7472 7.75298 25.6451C7.65087 25.543 7.5935 25.4045 7.5935 25.2601V24.7168H5.96211C5.81803 24.7168 5.67986 24.6596 5.57798 24.5577C5.4761 24.4558 5.41887 24.3177 5.41887 24.1736C5.41887 24.0295 5.4761 23.8914 5.57798 23.7895C5.67986 23.6876 5.81803 23.6304 5.96211 23.6304H7.5935V21.4566H7.04942C6.76041 21.4623 6.47316 21.4103 6.20449 21.3036C5.93582 21.1969 5.69112 21.0378 5.48472 20.8354C5.27831 20.633 5.11434 20.3915 5.0024 20.125C4.89047 19.8585 4.83281 19.5723 4.83281 19.2832C4.83281 18.9941 4.89047 18.708 5.0024 18.4415C5.11434 18.1749 5.27831 17.9334 5.48472 17.731C5.69112 17.5287 5.93582 17.3695 6.20449 17.2628C6.47316 17.1562 6.76041 17.1042 7.04942 17.1099H7.5935V16.5666C7.5935 16.4222 7.65087 16.2837 7.75298 16.1816C7.8551 16.0795 7.99359 16.0221 8.138 16.0221C8.28241 16.0221 8.42091 16.0795 8.52302 16.1816C8.62514 16.2837 8.6825 16.4222 8.6825 16.5666V17.1099H10.3156C10.4597 17.1099 10.5978 17.1671 10.6997 17.269C10.8016 17.3708 10.8588 17.509 10.8588 17.6531C10.8588 17.7972 10.8016 17.9353 10.6997 18.0372C10.5978 18.1391 10.4597 18.1963 10.3156 18.1963H8.6825V20.3701H9.22658C9.5156 20.3644 9.80284 20.4164 10.0715 20.5231C10.3402 20.6297 10.5849 20.7889 10.7913 20.9913C10.9977 21.1937 11.1617 21.4352 11.2736 21.7017C11.3855 21.9682 11.4432 22.2544 11.4432 22.5435C11.4432 22.8325 11.3855 23.1187 11.2736 23.3852C11.1617 23.6517 10.9977 23.8933 10.7913 24.0956C10.5849 24.298 10.3402 24.4572 10.0715 24.5639C9.80284 24.6705 9.5156 24.7225 9.22658 24.7168Z" fill="white"/>
</svg>
